<svg xmlns="http://www.w3.org/2000/svg" viewBox="0 0 64 64" role="img" aria-labelledby="title desc">
  <title id="title">Douchette de scan d'inventaire</title>
  <desc id="desc">Icône représentant une douchette de scan projetant un faisceau sur un code-barres</desc>
  <defs>
    <linearGradient id="bg" x1="0%" x2="100%" y1="0%" y2="100%">
      <stop offset="0%" stop-color="#1d4ed8" />
      <stop offset="100%" stop-color="#1e3a8a" />
    </linearGradient>
    <linearGradient id="beam" x1="0%" x2="100%" y1="0%" y2="0%">
      <stop offset="0%" stop-color="rgba(224, 242, 254, 0.05)" />
      <stop offset="50%" stop-color="rgba(224, 242, 254, 0.45)" />
      <stop offset="100%" stop-color="rgba(224, 242, 254, 0.05)" />
    </linearGradient>
  </defs>
  <rect x="4" y="6" width="56" height="52" rx="10" fill="url(#bg)" />
  <g transform="translate(8 16)">
    <g fill="#f8fafc">
      <rect x="38" y="6" width="2.5" height="20" />
      <rect x="34" y="6" width="1.5" height="20" />
      <rect x="30.5" y="6" width="1.5" height="20" />
      <rect x="27" y="6" width="1" height="20" />
      <rect x="24" y="6" width="2.5" height="20" />
    </g>
    <rect x="10" y="2" width="18" height="10" rx="4" fill="#0f172a" opacity="0.92" />
    <rect x="12" y="4" width="14" height="6" rx="3" fill="#e2e8f0" />
    <path
      d="M12 12c0 4 2 8 4.5 10l-1.8 6.5a2.5 2.5 0 0 0 2.4 3.1h3.8a2.5 2.5 0 0 0 2.4-1.8l1.1-3.4c1.5-4.8.4-11.4-4.4-14.4H12z"
      fill="#0f172a"
    />
    <path
      d="M16.5 23.5h5.2l-0.8 2.6a1 1 0 0 1-1 0.7h-1.6a1 1 0 0 1-0.96-1.28z"
      fill="#facc15"
    />
    <rect x="22" y="8" width="20" height="16" fill="url(#beam)" opacity="0.75" />
    <circle cx="19" cy="9" r="1" fill="#ef4444" />
  </g>
</svg>
